<svg xmlns="http://www.w3.org/2000/svg" viewBox="0 0 100 100">
  <rect width="100" height="100" fill="#3b82f6"/>
  <g fill="white">
    <rect x="15" y="15" width="10" height="10"/>
    <rect x="30" y="15" width="10" height="10"/>
    <rect x="45" y="15" width="10" height="10"/>
    <rect x="60" y="15" width="10" height="10"/>
    <rect x="75" y="15" width="10" height="10"/>
    
    <rect x="15" y="30" width="10" height="10"/>
    <rect x="45" y="30" width="10" height="10"/>
    <rect x="75" y="30" width="10" height="10"/>
    
    <rect x="15" y="45" width="10" height="10"/>
    <rect x="30" y="45" width="10" height="10"/>
    <rect x="45" y="45" width="10" height="10"/>
    <rect x="60" y="45" width="10" height="10"/>
    <rect x="75" y="45" width="10" height="10"/>
    
    <rect x="15" y="60" width="10" height="10"/>
    <rect x="45" y="60" width="10" height="10"/>
    <rect x="75" y="60" width="10" height="10"/>
    
    <rect x="15" y="75" width="10" height="10"/>
    <rect x="30" y="75" width="10" height="10"/>
    <rect x="45" y="75" width="10" height="10"/>
    <rect x="60" y="75" width="10" height="10"/>
    <rect x="75" y="75" width="10" height="10"/>
  </g>
</svg>
